<!--
  VYRA Module — Placeholder icon
  Replace this file with your module-specific icon to customize the login screen.

  This placeholder uses Heroicons v2 "cube" (MIT License) on a neutral slate background.
  Source: https://heroicons.com
-->
<svg viewBox="0 0 24 24" xmlns="http://www.w3.org/2000/svg">
  <circle cx="12" cy="12" r="12" fill="#64748b"/>
  <path fill="white" d="M11.644 1.59a.75.75 0 0 1 .712 0l9.75 5.25a.75.75 0 0 1 0 1.32l-9.75 5.25a.75.75 0 0 1-.712 0l-9.75-5.25a.75.75 0 0 1 0-1.32l9.75-5.25ZM3.265 10.602l7.668 4.129a2.25 2.25 0 0 0 2.134 0l7.668-4.13 1.37.739a.75.75 0 0 1 0 1.32l-9.75 5.25a.75.75 0 0 1-.71 0l-9.75-5.25a.75.75 0 0 1 0-1.32l1.37-.738ZM3.265 15.352l7.668 4.13a2.25 2.25 0 0 0 2.134 0l7.668-4.13 1.37.738a.75.75 0 0 1 0 1.32l-9.75 5.25a.75.75 0 0 1-.71 0l-9.75-5.25a.75.75 0 0 1 0-1.32l1.37-.738Z"/>
</svg>
