<?xml version="1.0" encoding="UTF-8" standalone="no"?>
<!DOCTYPE svg PUBLIC "-//W3C//DTD SVG 1.1//EN" "http://www.w3.org/Graphics/SVG/1.1/DTD/svg11.dtd">
<svg width="100%" height="100%" viewBox="0 0 81 18" version="1.1" xmlns="http://www.w3.org/2000/svg" xmlns:xlink="http://www.w3.org/1999/xlink" xml:space="preserve" xmlns:serif="http://www.serif.com/" style="fill-rule:evenodd;clip-rule:evenodd;stroke-linejoin:round;stroke-miterlimit:2;">
    <g>
        <path d="M21.119,8.87L22.705,3.158L24.078,3.158L21.721,10.781L20.522,10.781L18.171,3.158L19.543,3.158L21.119,8.87Z" style="fill:rgb(100,121,132);fill-rule:nonzero;"/>
        <path d="M28.18,9.012L25.798,9.012L25.274,10.781L23.975,10.781L26.452,3.158L27.557,3.158L29.987,10.781L28.693,10.781L28.18,9.012ZM26.117,7.938L27.866,7.938L27.002,4.949L26.117,7.938Z" style="fill:rgb(100,121,132);fill-rule:nonzero;"/>
        <path d="M33.602,7.807L32.324,7.807L32.324,10.781L31.068,10.781L31.068,3.158L33.476,3.158C33.868,3.161 34.228,3.211 34.558,3.307C34.887,3.403 35.172,3.546 35.414,3.736C35.654,3.927 35.841,4.165 35.974,4.451C36.106,4.737 36.173,5.073 36.173,5.456C36.173,5.715 36.139,5.949 36.071,6.16C36.003,6.372 35.907,6.563 35.785,6.734C35.663,6.905 35.517,7.055 35.346,7.184C35.175,7.313 34.986,7.423 34.78,7.514L36.393,10.718L36.393,10.781L35.053,10.781L33.602,7.807ZM32.324,6.791L33.481,6.791C33.691,6.791 33.883,6.762 34.057,6.703C34.232,6.643 34.383,6.559 34.51,6.448C34.638,6.339 34.736,6.204 34.806,6.045C34.876,5.886 34.911,5.704 34.911,5.498C34.911,5.285 34.878,5.097 34.811,4.933C34.745,4.768 34.65,4.631 34.526,4.519C34.402,4.407 34.251,4.323 34.073,4.265C33.895,4.207 33.696,4.177 33.476,4.173L32.324,4.173L32.324,6.791Z" style="fill:rgb(100,121,132);fill-rule:nonzero;"/>
        <path d="M37.622,3.158L42.156,3.158L42.156,4.2L40.507,4.2L40.507,9.745L42.156,9.745L42.156,10.781L37.622,10.781L37.622,9.745L39.234,9.745L39.234,4.2L37.622,4.2L37.622,3.158Z" style="fill:rgb(100,121,132);fill-rule:nonzero;"/>
        <path d="M48.672,7.461C48.672,7.912 48.614,8.344 48.499,8.758C48.384,9.171 48.212,9.536 47.983,9.852C47.755,10.168 47.468,10.419 47.124,10.606C46.781,10.792 46.379,10.886 45.917,10.886C45.46,10.886 45.062,10.792 44.724,10.603C44.386,10.415 44.104,10.163 43.878,9.847C43.653,9.531 43.484,9.167 43.37,8.755C43.257,8.343 43.201,7.912 43.201,7.461L43.201,6.488C43.201,6.188 43.226,5.894 43.276,5.608C43.327,5.322 43.402,5.052 43.501,4.799C43.601,4.546 43.725,4.312 43.873,4.098C44.022,3.883 44.196,3.699 44.397,3.545C44.597,3.392 44.824,3.271 45.078,3.184C45.331,3.097 45.609,3.053 45.912,3.053C46.373,3.053 46.775,3.147 47.119,3.336C47.463,3.524 47.751,3.776 47.981,4.092C48.211,4.408 48.384,4.774 48.499,5.189C48.614,5.605 48.672,6.038 48.672,6.488L48.672,7.461ZM47.41,6.477C47.406,6.191 47.381,5.907 47.331,5.624C47.282,5.341 47.201,5.089 47.085,4.867C46.971,4.646 46.818,4.466 46.627,4.328C46.437,4.19 46.199,4.121 45.912,4.121C45.63,4.121 45.395,4.19 45.208,4.328C45.021,4.466 44.873,4.646 44.763,4.87C44.653,5.093 44.577,5.345 44.533,5.627C44.489,5.907 44.466,6.191 44.462,6.477L44.462,7.461C44.466,7.748 44.49,8.031 44.536,8.312C44.581,8.594 44.658,8.847 44.768,9.073C44.879,9.297 45.027,9.479 45.214,9.619C45.4,9.758 45.635,9.83 45.917,9.83C46.204,9.83 46.442,9.758 46.633,9.619C46.823,9.479 46.976,9.298 47.091,9.074C47.206,8.851 47.287,8.598 47.334,8.315C47.381,8.032 47.406,7.748 47.41,7.461L47.41,6.477Z" style="fill:rgb(100,121,132);fill-rule:nonzero;"/>
        <path d="M50.037,10.781L50.037,3.158L52.472,3.158C52.839,3.161 53.182,3.203 53.501,3.283C53.82,3.364 54.1,3.488 54.339,3.655C54.578,3.823 54.765,4.036 54.902,4.297C55.038,4.557 55.104,4.865 55.101,5.221C55.097,5.598 54.992,5.92 54.786,6.187C54.581,6.454 54.303,6.661 53.954,6.807C54.167,6.866 54.356,6.951 54.522,7.061C54.687,7.171 54.826,7.303 54.938,7.456C55.05,7.61 55.136,7.78 55.195,7.967C55.254,8.154 55.284,8.352 55.284,8.561C55.284,8.924 55.218,9.244 55.085,9.519C54.952,9.795 54.768,10.026 54.533,10.211C54.297,10.396 54.018,10.536 53.695,10.632C53.372,10.728 53.024,10.778 52.651,10.781L50.037,10.781ZM51.299,6.367L52.503,6.367C52.692,6.364 52.868,6.339 53.03,6.291C53.192,6.244 53.333,6.174 53.451,6.082C53.57,5.989 53.664,5.876 53.734,5.742C53.804,5.607 53.838,5.453 53.838,5.278C53.838,5.086 53.806,4.922 53.739,4.786C53.673,4.65 53.58,4.538 53.459,4.451C53.339,4.364 53.196,4.3 53.033,4.26C52.868,4.22 52.688,4.198 52.493,4.195L51.299,4.195L51.299,6.367ZM51.299,7.325L51.299,9.755L52.671,9.755C52.87,9.751 53.052,9.721 53.216,9.663C53.38,9.606 53.521,9.526 53.64,9.425C53.758,9.324 53.852,9.2 53.92,9.053C53.988,8.907 54.022,8.743 54.022,8.561C54.022,8.369 53.992,8.197 53.933,8.045C53.874,7.894 53.788,7.765 53.676,7.661C53.565,7.556 53.428,7.475 53.268,7.417C53.107,7.359 52.928,7.329 52.729,7.325L51.299,7.325Z" style="fill:rgb(100,121,132);fill-rule:nonzero;"/>
        <path d="M61.781,7.461C61.781,7.912 61.723,8.344 61.608,8.758C61.493,9.171 61.321,9.536 61.092,9.852C60.864,10.168 60.577,10.419 60.233,10.606C59.89,10.792 59.487,10.886 59.027,10.886C58.569,10.886 58.171,10.792 57.832,10.603C57.494,10.415 57.212,10.163 56.987,9.847C56.762,9.531 56.593,9.167 56.479,8.755C56.366,8.343 56.309,7.912 56.309,7.461L56.309,6.488C56.309,6.188 56.334,5.894 56.385,5.608C56.435,5.322 56.511,5.052 56.61,4.799C56.71,4.546 56.834,4.312 56.982,4.098C57.13,3.883 57.305,3.699 57.505,3.545C57.706,3.392 57.933,3.271 58.186,3.184C58.439,3.097 58.718,3.053 59.022,3.053C59.482,3.053 59.885,3.147 60.228,3.336C60.572,3.524 60.859,3.776 61.089,4.092C61.32,4.408 61.493,4.774 61.608,5.189C61.723,5.605 61.781,6.038 61.781,6.488L61.781,7.461ZM60.519,6.477C60.515,6.191 60.489,5.907 60.441,5.624C60.391,5.341 60.31,5.089 60.194,4.867C60.079,4.646 59.927,4.466 59.736,4.328C59.546,4.19 59.307,4.121 59.022,4.121C58.739,4.121 58.504,4.19 58.317,4.328C58.131,4.466 57.982,4.646 57.872,4.87C57.762,5.093 57.685,5.345 57.642,5.627C57.598,5.907 57.574,6.191 57.571,6.477L57.571,7.461C57.574,7.748 57.599,8.031 57.644,8.312C57.69,8.594 57.767,8.847 57.878,9.073C57.987,9.297 58.136,9.479 58.322,9.619C58.509,9.758 58.744,9.83 59.027,9.83C59.312,9.83 59.551,9.758 59.741,9.619C59.931,9.479 60.085,9.298 60.199,9.074C60.315,8.851 60.396,8.598 60.443,8.315C60.49,8.032 60.515,7.748 60.519,7.461L60.519,6.477Z" style="fill:rgb(100,121,132);fill-rule:nonzero;"/>
        <path d="M68.408,4.195L66.068,4.195L66.068,10.781L64.817,10.781L64.817,4.195L62.492,4.195L62.492,3.158L68.408,3.158L68.408,4.195Z" style="fill:rgb(100,121,132);fill-rule:nonzero;"/>
        <path d="M69.614,3.158L74.148,3.158L74.148,4.2L72.499,4.2L72.499,9.745L74.148,9.745L74.148,10.781L69.614,10.781L69.614,9.745L71.226,9.745L71.226,4.2L69.614,4.2L69.614,3.158Z" style="fill:rgb(100,121,132);fill-rule:nonzero;"/>
        <path d="M80.648,8.441C80.613,8.807 80.526,9.141 80.386,9.443C80.247,9.745 80.062,10.004 79.832,10.218C79.601,10.433 79.329,10.599 79.018,10.716C78.705,10.833 78.357,10.891 77.973,10.891C77.508,10.891 77.104,10.801 76.758,10.622C76.413,10.442 76.125,10.198 75.894,9.891C75.664,9.584 75.491,9.224 75.376,8.813C75.261,8.401 75.201,7.961 75.197,7.493L75.197,6.451C75.201,5.987 75.263,5.548 75.381,5.134C75.5,4.721 75.675,4.36 75.907,4.05C76.139,3.742 76.428,3.497 76.774,3.318C77.12,3.138 77.521,3.048 77.978,3.048C78.379,3.048 78.737,3.107 79.052,3.226C79.366,3.344 79.634,3.512 79.858,3.728C80.081,3.945 80.259,4.209 80.392,4.519C80.525,4.83 80.61,5.175 80.648,5.556L79.391,5.556C79.371,5.332 79.328,5.129 79.264,4.946C79.199,4.762 79.111,4.605 78.999,4.475C78.887,4.344 78.747,4.243 78.577,4.173C78.408,4.104 78.208,4.069 77.978,4.069C77.695,4.069 77.458,4.133 77.266,4.263C77.074,4.392 76.919,4.566 76.8,4.784C76.681,5.002 76.596,5.254 76.546,5.54C76.496,5.826 76.47,6.126 76.47,6.441L76.47,7.493C76.47,7.821 76.496,8.129 76.546,8.417C76.596,8.705 76.679,8.958 76.795,9.174C76.91,9.39 77.064,9.561 77.256,9.687C77.447,9.813 77.686,9.875 77.973,9.875C78.413,9.875 78.748,9.751 78.978,9.501C79.209,9.252 79.345,8.898 79.386,8.441L80.648,8.441Z" style="fill:rgb(100,121,132);fill-rule:nonzero;"/>
        <path d="M21.111,17.091C20.936,17.091 20.776,17.06 20.63,17C20.483,16.94 20.358,16.857 20.254,16.75C20.149,16.642 20.068,16.515 20.01,16.368C19.952,16.221 19.923,16.062 19.923,15.888L19.923,15.791C19.923,15.59 19.955,15.411 20.019,15.252C20.084,15.093 20.169,14.96 20.275,14.85C20.382,14.74 20.503,14.656 20.639,14.598C20.774,14.54 20.913,14.511 21.055,14.511C21.235,14.511 21.392,14.542 21.526,14.604C21.659,14.666 21.771,14.752 21.86,14.862C21.949,14.971 22.015,15.1 22.059,15.249C22.103,15.397 22.124,15.558 22.124,15.731L22.124,15.922L20.348,15.922C20.352,16.036 20.374,16.142 20.413,16.242C20.452,16.341 20.506,16.428 20.574,16.502C20.642,16.577 20.724,16.635 20.819,16.678C20.914,16.721 21.019,16.743 21.134,16.743C21.286,16.743 21.42,16.712 21.539,16.651C21.657,16.589 21.754,16.508 21.833,16.407L22.092,16.61C22.051,16.672 21.999,16.732 21.937,16.79C21.875,16.847 21.804,16.898 21.722,16.943C21.641,16.987 21.549,17.023 21.447,17.05C21.344,17.077 21.231,17.091 21.111,17.091ZM21.055,14.86C20.97,14.86 20.888,14.876 20.812,14.907C20.736,14.939 20.667,14.985 20.605,15.045C20.544,15.106 20.492,15.18 20.45,15.269C20.408,15.356 20.378,15.458 20.362,15.573L21.7,15.573L21.7,15.54C21.695,15.458 21.679,15.376 21.652,15.295C21.625,15.213 21.586,15.141 21.534,15.076C21.482,15.012 21.416,14.96 21.337,14.92C21.258,14.88 21.165,14.86 21.055,14.86Z" style="fill:rgb(100,121,132);fill-rule:nonzero;"/>
        <path d="M23.423,14.557L23.453,14.925C23.543,14.796 23.654,14.695 23.786,14.622C23.918,14.549 24.065,14.512 24.227,14.511C24.358,14.511 24.476,14.529 24.582,14.566C24.689,14.603 24.78,14.66 24.855,14.739C24.93,14.817 24.988,14.916 25.029,15.036C25.069,15.156 25.089,15.299 25.089,15.466L25.089,17.044L24.664,17.044L24.664,15.474C24.664,15.364 24.652,15.27 24.627,15.194C24.603,15.117 24.566,15.055 24.518,15.007C24.47,14.96 24.411,14.925 24.341,14.904C24.272,14.882 24.191,14.872 24.101,14.872C23.958,14.872 23.834,14.907 23.725,14.979C23.617,15.05 23.531,15.144 23.466,15.26L23.466,17.044L23.042,17.044L23.042,14.557L23.423,14.557Z" style="fill:rgb(100,121,132);fill-rule:nonzero;"/>
        <path d="M25.993,15.779C25.993,15.594 26.016,15.424 26.062,15.269C26.109,15.113 26.176,14.979 26.263,14.867C26.349,14.755 26.454,14.668 26.577,14.605C26.699,14.542 26.836,14.511 26.988,14.511C27.137,14.511 27.267,14.536 27.377,14.586C27.489,14.635 27.585,14.708 27.666,14.803L27.666,13.513L28.091,13.513L28.091,17.044L27.701,17.044L27.682,16.782C27.6,16.883 27.5,16.96 27.386,17.012C27.271,17.065 27.137,17.091 26.983,17.091C26.833,17.091 26.697,17.058 26.576,16.993C26.454,16.929 26.35,16.84 26.264,16.727C26.178,16.613 26.111,16.48 26.064,16.326C26.017,16.172 25.993,16.006 25.993,15.828L25.993,15.779ZM26.418,15.828C26.418,15.949 26.431,16.065 26.457,16.173C26.483,16.283 26.523,16.377 26.578,16.46C26.632,16.543 26.701,16.608 26.786,16.656C26.87,16.705 26.971,16.729 27.089,16.729C27.161,16.729 27.226,16.721 27.284,16.704C27.343,16.687 27.396,16.663 27.443,16.631C27.49,16.6 27.533,16.562 27.57,16.519C27.606,16.475 27.639,16.426 27.666,16.373L27.666,15.219C27.611,15.118 27.536,15.035 27.443,14.969C27.35,14.905 27.233,14.872 27.094,14.872C26.974,14.872 26.872,14.896 26.787,14.945C26.702,14.994 26.632,15.061 26.578,15.144C26.523,15.229 26.483,15.324 26.457,15.434C26.431,15.543 26.418,15.659 26.418,15.779L26.418,15.828Z" style="fill:rgb(100,121,132);fill-rule:nonzero;"/>
        <path d="M29.014,13.513L30.285,13.513L30.285,16.676L31.097,16.676L31.097,17.044L29.014,17.044L29.014,16.676L29.86,16.676L29.86,13.883L29.014,13.883L29.014,13.513Z" style="fill:rgb(100,121,132);fill-rule:nonzero;"/>
        <path d="M32.953,17.091C32.779,17.091 32.618,17.06 32.472,17C32.325,16.94 32.2,16.857 32.096,16.75C31.991,16.642 31.911,16.515 31.852,16.368C31.794,16.221 31.765,16.062 31.765,15.888L31.765,15.791C31.765,15.59 31.797,15.411 31.862,15.252C31.926,15.093 32.011,14.96 32.118,14.85C32.224,14.74 32.345,14.656 32.48,14.598C32.617,14.54 32.756,14.511 32.898,14.511C33.077,14.511 33.234,14.542 33.368,14.604C33.502,14.666 33.613,14.752 33.702,14.862C33.791,14.971 33.858,15.1 33.902,15.249C33.945,15.397 33.967,15.558 33.967,15.731L33.967,15.922L32.189,15.922C32.195,16.036 32.217,16.142 32.256,16.242C32.294,16.341 32.348,16.428 32.417,16.502C32.485,16.577 32.567,16.635 32.661,16.678C32.756,16.721 32.861,16.743 32.977,16.743C33.128,16.743 33.263,16.712 33.381,16.651C33.499,16.589 33.597,16.508 33.675,16.407L33.935,16.61C33.893,16.672 33.842,16.732 33.779,16.79C33.717,16.847 33.646,16.898 33.565,16.943C33.484,16.987 33.392,17.023 33.289,17.05C33.186,17.077 33.074,17.091 32.953,17.091ZM32.898,14.86C32.812,14.86 32.73,14.876 32.654,14.907C32.578,14.939 32.508,14.985 32.448,15.045C32.386,15.106 32.335,15.18 32.292,15.269C32.251,15.356 32.221,15.458 32.203,15.573L33.542,15.573L33.542,15.54C33.537,15.458 33.522,15.376 33.494,15.295C33.468,15.213 33.428,15.141 33.376,15.076C33.324,15.012 33.258,14.96 33.179,14.92C33.101,14.88 33.007,14.86 32.898,14.86Z" style="fill:rgb(100,121,132);fill-rule:nonzero;"/>
        <path d="M36.439,16.385C36.439,16.334 36.429,16.289 36.409,16.247C36.389,16.207 36.355,16.171 36.307,16.136C36.26,16.102 36.198,16.072 36.119,16.043C36.041,16.014 35.944,15.99 35.828,15.967C35.685,15.937 35.555,15.901 35.438,15.86C35.321,15.819 35.22,15.769 35.137,15.712C35.053,15.655 34.989,15.587 34.942,15.509C34.897,15.432 34.874,15.342 34.874,15.24C34.874,15.138 34.897,15.045 34.945,14.956C34.992,14.868 35.059,14.79 35.145,14.725C35.23,14.659 35.333,14.607 35.452,14.568C35.57,14.53 35.701,14.511 35.843,14.511C35.997,14.511 36.135,14.531 36.257,14.571C36.379,14.61 36.484,14.666 36.57,14.736C36.656,14.807 36.721,14.889 36.769,14.983C36.816,15.078 36.839,15.179 36.839,15.288L36.413,15.288C36.413,15.234 36.4,15.182 36.372,15.13C36.345,15.079 36.306,15.033 36.257,14.994C36.208,14.954 36.149,14.922 36.079,14.897C36.009,14.873 35.931,14.86 35.843,14.86C35.753,14.86 35.674,14.87 35.606,14.89C35.537,14.91 35.481,14.937 35.435,14.97C35.39,15.004 35.356,15.043 35.333,15.088C35.31,15.132 35.299,15.178 35.299,15.226C35.299,15.275 35.308,15.318 35.326,15.357C35.345,15.395 35.376,15.43 35.422,15.46C35.467,15.491 35.527,15.518 35.603,15.543C35.68,15.567 35.775,15.591 35.892,15.614C36.045,15.646 36.182,15.683 36.303,15.726C36.425,15.768 36.526,15.818 36.609,15.877C36.692,15.936 36.755,16.005 36.798,16.083C36.842,16.161 36.864,16.252 36.864,16.354C36.864,16.465 36.839,16.565 36.789,16.655C36.74,16.746 36.67,16.823 36.582,16.888C36.492,16.952 36.386,17.002 36.262,17.037C36.138,17.072 36.002,17.091 35.855,17.091C35.687,17.091 35.536,17.068 35.405,17.022C35.273,16.977 35.161,16.917 35.07,16.843C34.979,16.768 34.909,16.682 34.861,16.584C34.813,16.486 34.789,16.385 34.789,16.279L35.214,16.279C35.22,16.366 35.243,16.439 35.284,16.5C35.325,16.559 35.375,16.607 35.435,16.644C35.496,16.68 35.563,16.707 35.637,16.722C35.71,16.737 35.783,16.745 35.855,16.745C36.034,16.745 36.176,16.712 36.28,16.646C36.384,16.58 36.437,16.493 36.439,16.385Z" style="fill:rgb(100,121,132);fill-rule:nonzero;"/>
        <path d="M39.377,16.385C39.377,16.334 39.367,16.289 39.347,16.247C39.327,16.207 39.293,16.171 39.246,16.136C39.198,16.102 39.136,16.072 39.057,16.043C38.979,16.014 38.882,15.99 38.766,15.967C38.623,15.937 38.493,15.901 38.376,15.86C38.259,15.819 38.158,15.769 38.075,15.712C37.991,15.655 37.927,15.587 37.88,15.509C37.835,15.432 37.811,15.342 37.811,15.24C37.811,15.138 37.835,15.045 37.883,14.956C37.93,14.868 37.997,14.79 38.083,14.725C38.168,14.659 38.271,14.607 38.39,14.568C38.508,14.53 38.639,14.511 38.781,14.511C38.935,14.511 39.073,14.531 39.195,14.571C39.318,14.61 39.422,14.666 39.508,14.736C39.593,14.807 39.66,14.889 39.707,14.983C39.754,15.078 39.777,15.179 39.777,15.288L39.351,15.288C39.351,15.234 39.337,15.182 39.31,15.13C39.283,15.079 39.245,15.033 39.195,14.994C39.146,14.954 39.087,14.922 39.017,14.897C38.947,14.873 38.869,14.86 38.781,14.86C38.691,14.86 38.612,14.87 38.544,14.89C38.476,14.91 38.419,14.937 38.373,14.97C38.328,15.004 38.294,15.043 38.272,15.088C38.248,15.132 38.237,15.178 38.237,15.226C38.237,15.275 38.246,15.318 38.264,15.357C38.283,15.395 38.314,15.43 38.36,15.46C38.405,15.491 38.466,15.518 38.541,15.543C38.618,15.567 38.713,15.591 38.83,15.614C38.983,15.646 39.12,15.683 39.241,15.726C39.363,15.768 39.464,15.818 39.547,15.877C39.63,15.936 39.693,16.005 39.736,16.083C39.78,16.161 39.802,16.252 39.802,16.354C39.802,16.465 39.777,16.565 39.727,16.655C39.678,16.746 39.608,16.823 39.52,16.888C39.43,16.952 39.324,17.002 39.2,17.037C39.076,17.072 38.94,17.091 38.793,17.091C38.624,17.091 38.474,17.068 38.343,17.022C38.211,16.977 38.099,16.917 38.008,16.843C37.917,16.768 37.848,16.682 37.799,16.584C37.751,16.486 37.727,16.385 37.727,16.279L38.152,16.279C38.158,16.366 38.181,16.439 38.222,16.5C38.263,16.559 38.313,16.607 38.373,16.644C38.434,16.68 38.501,16.707 38.575,16.722C38.648,16.737 38.721,16.745 38.793,16.745C38.973,16.745 39.114,16.712 39.218,16.646C39.323,16.58 39.375,16.493 39.377,16.385Z" style="fill:rgb(100,121,132);fill-rule:nonzero;"/>
        <path d="M45.906,15.828C45.906,16.006 45.884,16.172 45.841,16.326C45.798,16.48 45.735,16.613 45.653,16.727C45.57,16.84 45.468,16.929 45.346,16.993C45.224,17.058 45.085,17.091 44.929,17.091C44.777,17.091 44.643,17.066 44.528,17.017C44.412,16.967 44.313,16.897 44.23,16.806L44.23,18L43.805,18L43.805,14.557L44.193,14.557L44.214,14.828C44.296,14.726 44.396,14.647 44.514,14.592C44.631,14.538 44.767,14.511 44.922,14.511C45.081,14.511 45.222,14.542 45.345,14.605C45.467,14.668 45.57,14.755 45.653,14.867C45.735,14.979 45.798,15.113 45.841,15.269C45.884,15.424 45.906,15.594 45.906,15.779L45.906,15.828ZM45.481,15.779C45.481,15.659 45.467,15.543 45.44,15.434C45.413,15.324 45.371,15.229 45.316,15.144C45.26,15.061 45.189,14.994 45.103,14.945C45.018,14.896 44.914,14.872 44.795,14.872C44.659,14.872 44.544,14.904 44.452,14.967C44.359,15.032 44.285,15.112 44.23,15.212L44.23,16.409C44.285,16.507 44.358,16.588 44.451,16.65C44.543,16.712 44.659,16.743 44.8,16.743C44.918,16.743 45.02,16.718 45.106,16.668C45.191,16.618 45.262,16.551 45.317,16.467C45.372,16.383 45.413,16.286 45.44,16.175C45.467,16.065 45.481,15.949 45.481,15.828L45.481,15.779Z" style="fill:rgb(100,121,132);fill-rule:nonzero;"/>
        <path d="M46.717,15.777C46.717,15.598 46.744,15.431 46.796,15.278C46.848,15.123 46.923,14.99 47.02,14.876C47.117,14.763 47.235,14.674 47.375,14.609C47.514,14.543 47.671,14.511 47.846,14.511C48.023,14.511 48.181,14.543 48.321,14.609C48.461,14.674 48.58,14.763 48.677,14.876C48.774,14.99 48.849,15.123 48.901,15.278C48.953,15.431 48.979,15.598 48.979,15.777L48.979,15.828C48.979,16.007 48.953,16.173 48.901,16.327C48.849,16.48 48.774,16.613 48.677,16.727C48.58,16.84 48.461,16.929 48.322,16.993C48.182,17.058 48.025,17.091 47.851,17.091C47.674,17.091 47.516,17.058 47.376,16.993C47.236,16.929 47.117,16.84 47.02,16.727C46.923,16.613 46.848,16.48 46.796,16.327C46.744,16.173 46.717,16.007 46.717,15.828L46.717,15.777ZM47.143,15.828C47.143,15.95 47.157,16.067 47.187,16.178C47.215,16.29 47.259,16.387 47.319,16.472C47.378,16.556 47.451,16.623 47.54,16.672C47.629,16.721 47.733,16.745 47.851,16.745C47.967,16.745 48.069,16.721 48.157,16.672C48.245,16.623 48.319,16.556 48.378,16.472C48.437,16.387 48.481,16.29 48.511,16.178C48.539,16.067 48.554,15.95 48.554,15.828L48.554,15.777C48.554,15.656 48.539,15.54 48.509,15.429C48.479,15.318 48.435,15.22 48.376,15.136C48.317,15.052 48.243,14.985 48.155,14.935C48.067,14.885 47.964,14.86 47.846,14.86C47.728,14.86 47.625,14.885 47.538,14.935C47.451,14.985 47.378,15.052 47.319,15.136C47.259,15.22 47.215,15.318 47.187,15.429C47.157,15.54 47.143,15.656 47.143,15.777L47.143,15.828Z" style="fill:rgb(100,121,132);fill-rule:nonzero;"/>
        <path d="M51.44,16.385C51.44,16.334 51.43,16.289 51.41,16.247C51.39,16.207 51.356,16.171 51.309,16.136C51.261,16.102 51.199,16.072 51.12,16.043C51.042,16.014 50.945,15.99 50.829,15.967C50.686,15.937 50.556,15.901 50.439,15.86C50.322,15.819 50.221,15.769 50.138,15.712C50.054,15.655 49.99,15.587 49.944,15.509C49.897,15.432 49.875,15.342 49.875,15.24C49.875,15.138 49.898,15.045 49.946,14.956C49.993,14.868 50.06,14.79 50.146,14.725C50.232,14.659 50.334,14.607 50.453,14.568C50.572,14.53 50.702,14.511 50.844,14.511C50.998,14.511 51.136,14.531 51.259,14.571C51.381,14.61 51.485,14.666 51.571,14.736C51.656,14.807 51.723,14.889 51.77,14.983C51.816,15.078 51.84,15.179 51.84,15.288L51.415,15.288C51.415,15.234 51.401,15.182 51.373,15.13C51.346,15.079 51.307,15.033 51.259,14.994C51.209,14.954 51.15,14.922 51.08,14.897C51.01,14.873 50.932,14.86 50.844,14.86C50.754,14.86 50.675,14.87 50.607,14.89C50.539,14.91 50.482,14.937 50.437,14.97C50.391,15.004 50.358,15.043 50.334,15.088C50.311,15.132 50.3,15.178 50.3,15.226C50.3,15.275 50.309,15.318 50.328,15.357C50.346,15.395 50.377,15.43 50.423,15.46C50.468,15.491 50.529,15.518 50.604,15.543C50.68,15.567 50.777,15.591 50.893,15.614C51.046,15.646 51.183,15.683 51.304,15.726C51.425,15.768 51.527,15.818 51.61,15.877C51.693,15.936 51.756,16.005 51.8,16.083C51.843,16.161 51.865,16.252 51.865,16.354C51.865,16.465 51.84,16.565 51.79,16.655C51.74,16.746 51.671,16.823 51.582,16.888C51.494,16.952 51.387,17.002 51.263,17.037C51.138,17.072 51.003,17.091 50.856,17.091C50.688,17.091 50.538,17.068 50.406,17.022C50.274,16.977 50.163,16.917 50.071,16.843C49.98,16.768 49.91,16.682 49.862,16.584C49.814,16.486 49.79,16.385 49.79,16.279L50.215,16.279C50.221,16.366 50.245,16.439 50.285,16.5C50.325,16.559 50.376,16.607 50.437,16.644C50.497,16.68 50.564,16.707 50.638,16.722C50.711,16.737 50.784,16.745 50.856,16.745C51.035,16.745 51.177,16.712 51.281,16.646C51.386,16.58 51.438,16.493 51.44,16.385Z" style="fill:rgb(100,121,132);fill-rule:nonzero;"/>
        <path d="M54.378,16.385C54.378,16.334 54.368,16.289 54.348,16.247C54.328,16.207 54.295,16.171 54.247,16.136C54.2,16.102 54.137,16.072 54.059,16.043C53.981,16.014 53.884,15.99 53.767,15.967C53.624,15.937 53.495,15.901 53.377,15.86C53.26,15.819 53.159,15.769 53.076,15.712C52.993,15.655 52.928,15.587 52.882,15.509C52.836,15.432 52.813,15.342 52.813,15.24C52.813,15.138 52.836,15.045 52.885,14.956C52.932,14.868 52.998,14.79 53.084,14.725C53.17,14.659 53.272,14.607 53.391,14.568C53.51,14.53 53.64,14.511 53.783,14.511C53.936,14.511 54.074,14.531 54.197,14.571C54.319,14.61 54.423,14.666 54.509,14.736C54.594,14.807 54.661,14.889 54.708,14.983C54.755,15.078 54.778,15.179 54.778,15.288L54.353,15.288C54.353,15.234 54.339,15.182 54.312,15.13C54.284,15.079 54.246,15.033 54.197,14.994C54.148,14.954 54.088,14.922 54.018,14.897C53.949,14.873 53.87,14.86 53.783,14.86C53.692,14.86 53.613,14.87 53.545,14.89C53.477,14.91 53.42,14.937 53.375,14.97C53.33,15.004 53.296,15.043 53.273,15.088C53.25,15.132 53.238,15.178 53.238,15.226C53.238,15.275 53.247,15.318 53.266,15.357C53.284,15.395 53.316,15.43 53.361,15.46C53.407,15.491 53.467,15.518 53.542,15.543C53.619,15.567 53.715,15.591 53.831,15.614C53.984,15.646 54.122,15.683 54.242,15.726C54.364,15.768 54.466,15.818 54.548,15.877C54.631,15.936 54.694,16.005 54.738,16.083C54.782,16.161 54.804,16.252 54.804,16.354C54.804,16.465 54.778,16.565 54.728,16.655C54.679,16.746 54.609,16.823 54.521,16.888C54.432,16.952 54.325,17.002 54.201,17.037C54.077,17.072 53.942,17.091 53.794,17.091C53.625,17.091 53.476,17.068 53.344,17.022C53.212,16.977 53.101,16.917 53.01,16.843C52.919,16.768 52.849,16.682 52.8,16.584C52.752,16.486 52.728,16.385 52.728,16.279L53.153,16.279C53.159,16.366 53.183,16.439 53.223,16.5C53.264,16.559 53.315,16.607 53.375,16.644C53.435,16.68 53.502,16.707 53.576,16.722C53.65,16.737 53.723,16.745 53.794,16.745C53.974,16.745 54.115,16.712 54.22,16.646C54.324,16.58 54.377,16.493 54.378,16.385Z" style="fill:rgb(100,121,132);fill-rule:nonzero;"/>
        <path d="M55.669,14.557L56.941,14.557L56.941,16.676L57.751,16.676L57.751,17.044L55.669,17.044L55.669,16.676L56.515,16.676L56.515,14.927L55.669,14.927L55.669,14.557ZM56.459,13.904C56.459,13.834 56.481,13.774 56.523,13.726C56.565,13.678 56.629,13.653 56.715,13.653C56.799,13.653 56.863,13.678 56.906,13.726C56.949,13.774 56.97,13.834 56.97,13.904C56.97,13.973 56.949,14.03 56.906,14.076C56.863,14.122 56.799,14.146 56.715,14.146C56.629,14.146 56.565,14.122 56.523,14.076C56.481,14.03 56.459,13.973 56.459,13.904Z" style="fill:rgb(100,121,132);fill-rule:nonzero;"/>
        <path d="M60.684,15.828C60.684,16.006 60.662,16.172 60.619,16.326C60.576,16.48 60.514,16.613 60.431,16.727C60.348,16.84 60.246,16.929 60.125,16.993C60.003,17.058 59.863,17.091 59.705,17.091C59.545,17.091 59.407,17.062 59.29,17.005C59.173,16.948 59.073,16.867 58.99,16.761L58.97,17.044L58.578,17.044L58.578,13.513L59.004,13.513L59.004,14.823C59.085,14.722 59.183,14.645 59.298,14.591C59.413,14.538 59.547,14.511 59.701,14.511C59.86,14.511 60.001,14.542 60.124,14.605C60.246,14.668 60.348,14.755 60.431,14.867C60.514,14.979 60.576,15.113 60.619,15.269C60.662,15.424 60.684,15.594 60.684,15.779L60.684,15.828ZM60.258,15.779C60.258,15.659 60.247,15.543 60.223,15.434C60.199,15.324 60.162,15.229 60.11,15.144C60.057,15.061 59.989,14.994 59.905,14.945C59.821,14.896 59.717,14.872 59.595,14.872C59.521,14.872 59.454,14.881 59.393,14.901C59.331,14.92 59.277,14.947 59.228,14.981C59.18,15.015 59.137,15.056 59.1,15.103C59.062,15.15 59.03,15.201 59.004,15.256L59.004,16.343C59.032,16.398 59.064,16.449 59.102,16.496C59.139,16.542 59.183,16.583 59.232,16.619C59.281,16.654 59.336,16.681 59.397,16.7C59.458,16.719 59.526,16.729 59.599,16.729C59.716,16.729 59.815,16.705 59.899,16.656C59.983,16.608 60.051,16.543 60.104,16.46C60.157,16.377 60.196,16.283 60.221,16.173C60.246,16.065 60.258,15.949 60.258,15.828L60.258,15.779Z" style="fill:rgb(100,121,132);fill-rule:nonzero;"/>
        <path d="M61.482,14.557L62.753,14.557L62.753,16.676L63.564,16.676L63.564,17.044L61.482,17.044L61.482,16.676L62.328,16.676L62.328,14.927L61.482,14.927L61.482,14.557ZM62.273,13.904C62.273,13.834 62.293,13.774 62.336,13.726C62.378,13.678 62.442,13.653 62.528,13.653C62.612,13.653 62.676,13.678 62.718,13.726C62.761,13.774 62.783,13.834 62.783,13.904C62.783,13.973 62.761,14.03 62.718,14.076C62.676,14.122 62.612,14.146 62.528,14.146C62.442,14.146 62.378,14.122 62.336,14.076C62.293,14.03 62.273,13.973 62.273,13.904Z" style="fill:rgb(100,121,132);fill-rule:nonzero;"/>
        <path d="M64.422,13.513L65.694,13.513L65.694,16.676L66.504,16.676L66.504,17.044L64.422,17.044L64.422,16.676L65.268,16.676L65.268,13.883L64.422,13.883L64.422,13.513Z" style="fill:rgb(100,121,132);fill-rule:nonzero;"/>
        <path d="M67.363,14.557L68.634,14.557L68.634,16.676L69.445,16.676L69.445,17.044L67.363,17.044L67.363,16.676L68.209,16.676L68.209,14.927L67.363,14.927L67.363,14.557ZM68.154,13.904C68.154,13.834 68.175,13.774 68.217,13.726C68.259,13.678 68.323,13.653 68.409,13.653C68.493,13.653 68.557,13.678 68.599,13.726C68.643,13.774 68.664,13.834 68.664,13.904C68.664,13.973 68.643,14.03 68.599,14.076C68.557,14.122 68.493,14.146 68.409,14.146C68.323,14.146 68.259,14.122 68.217,14.076C68.175,14.03 68.154,13.973 68.154,13.904Z" style="fill:rgb(100,121,132);fill-rule:nonzero;"/>
        <path d="M70.957,13.955L70.957,14.557L71.904,14.557L71.904,14.886L70.957,14.886L70.957,16.237C70.957,16.334 70.969,16.413 70.993,16.477C71.018,16.539 71.051,16.589 71.094,16.627C71.137,16.664 71.187,16.69 71.243,16.706C71.299,16.721 71.358,16.729 71.421,16.729C71.467,16.729 71.514,16.726 71.563,16.721C71.612,16.716 71.66,16.709 71.707,16.701C71.754,16.694 71.797,16.685 71.838,16.677C71.879,16.669 71.912,16.662 71.939,16.655L71.998,16.956C71.963,16.979 71.92,16.997 71.869,17.013C71.819,17.03 71.763,17.043 71.704,17.054C71.644,17.067 71.58,17.075 71.514,17.081C71.447,17.087 71.381,17.091 71.315,17.091C71.205,17.091 71.102,17.075 71.006,17.043C70.91,17.012 70.827,16.961 70.757,16.893C70.686,16.825 70.63,16.737 70.59,16.629C70.549,16.521 70.529,16.39 70.529,16.237L70.529,14.886L69.876,14.886L69.876,14.557L70.529,14.557L70.529,13.955L70.957,13.955Z" style="fill:rgb(100,121,132);fill-rule:nonzero;"/>
        <path d="M72.907,14.557L74.178,14.557L74.178,16.676L74.99,16.676L74.99,17.044L72.907,17.044L72.907,16.676L73.753,16.676L73.753,14.927L72.907,14.927L72.907,14.557ZM73.698,13.904C73.698,13.834 73.719,13.774 73.761,13.726C73.803,13.678 73.868,13.653 73.953,13.653C74.037,13.653 74.101,13.678 74.144,13.726C74.187,13.774 74.208,13.834 74.208,13.904C74.208,13.973 74.187,14.03 74.144,14.076C74.101,14.122 74.037,14.146 73.953,14.146C73.868,14.146 73.803,14.122 73.761,14.076C73.719,14.03 73.698,13.973 73.698,13.904Z" style="fill:rgb(100,121,132);fill-rule:nonzero;"/>
        <path d="M76.847,17.091C76.672,17.091 76.511,17.06 76.365,17C76.219,16.94 76.093,16.857 75.989,16.75C75.885,16.642 75.804,16.515 75.746,16.368C75.687,16.221 75.658,16.062 75.658,15.888L75.658,15.791C75.658,15.59 75.69,15.411 75.755,15.252C75.819,15.093 75.904,14.96 76.011,14.85C76.117,14.74 76.239,14.656 76.374,14.598C76.509,14.54 76.649,14.511 76.792,14.511C76.971,14.511 77.127,14.542 77.261,14.604C77.395,14.666 77.507,14.752 77.596,14.862C77.684,14.971 77.75,15.1 77.794,15.249C77.838,15.397 77.86,15.558 77.86,15.731L77.86,15.922L76.083,15.922C76.088,16.036 76.11,16.142 76.149,16.242C76.188,16.341 76.242,16.428 76.31,16.502C76.378,16.577 76.459,16.635 76.555,16.678C76.649,16.721 76.755,16.743 76.87,16.743C77.021,16.743 77.156,16.712 77.274,16.651C77.392,16.589 77.49,16.508 77.568,16.407L77.828,16.61C77.787,16.672 77.735,16.732 77.673,16.79C77.61,16.847 77.539,16.898 77.458,16.943C77.377,16.987 77.285,17.023 77.182,17.05C77.079,17.077 76.968,17.091 76.847,17.091ZM76.792,14.86C76.705,14.86 76.624,14.876 76.547,14.907C76.47,14.939 76.402,14.985 76.341,15.045C76.279,15.106 76.228,15.18 76.185,15.269C76.144,15.356 76.114,15.458 76.097,15.573L77.435,15.573L77.435,15.54C77.43,15.458 77.414,15.376 77.388,15.295C77.361,15.213 77.321,15.141 77.27,15.076C77.217,15.012 77.152,14.96 77.073,14.92C76.994,14.88 76.9,14.86 76.792,14.86Z" style="fill:rgb(100,121,132);fill-rule:nonzero;"/>
        <path d="M80.332,16.385C80.332,16.334 80.322,16.289 80.302,16.247C80.282,16.207 80.248,16.171 80.201,16.136C80.154,16.102 80.091,16.072 80.013,16.043C79.935,16.014 79.837,15.99 79.721,15.967C79.578,15.937 79.448,15.901 79.331,15.86C79.214,15.819 79.113,15.769 79.03,15.712C78.947,15.655 78.882,15.587 78.836,15.509C78.79,15.432 78.767,15.342 78.767,15.24C78.767,15.138 78.791,15.045 78.838,14.956C78.885,14.868 78.952,14.79 79.038,14.725C79.124,14.659 79.226,14.607 79.345,14.568C79.464,14.53 79.594,14.511 79.737,14.511C79.89,14.511 80.028,14.531 80.151,14.571C80.273,14.61 80.377,14.666 80.463,14.736C80.549,14.807 80.615,14.889 80.662,14.983C80.709,15.078 80.732,15.179 80.732,15.288L80.307,15.288C80.307,15.234 80.293,15.182 80.265,15.13C80.238,15.079 80.199,15.033 80.151,14.994C80.101,14.954 80.042,14.922 79.973,14.897C79.903,14.873 79.824,14.86 79.737,14.86C79.647,14.86 79.567,14.87 79.499,14.89C79.431,14.91 79.374,14.937 79.329,14.97C79.284,15.004 79.25,15.043 79.226,15.088C79.204,15.132 79.192,15.178 79.192,15.226C79.192,15.275 79.201,15.318 79.22,15.357C79.238,15.395 79.27,15.43 79.315,15.46C79.36,15.491 79.421,15.518 79.496,15.543C79.572,15.567 79.669,15.591 79.785,15.614C79.938,15.646 80.076,15.683 80.197,15.726C80.317,15.768 80.419,15.818 80.502,15.877C80.585,15.936 80.648,16.005 80.692,16.083C80.735,16.161 80.758,16.252 80.758,16.354C80.758,16.465 80.732,16.565 80.682,16.655C80.633,16.746 80.564,16.823 80.474,16.888C80.386,16.952 80.28,17.002 80.155,17.037C80.031,17.072 79.895,17.091 79.748,17.091C79.58,17.091 79.429,17.068 79.298,17.022C79.166,16.977 79.055,16.917 78.963,16.843C78.872,16.768 78.802,16.682 78.754,16.584C78.706,16.486 78.682,16.385 78.682,16.279L79.107,16.279C79.113,16.366 79.137,16.439 79.177,16.5C79.218,16.559 79.268,16.607 79.329,16.644C79.389,16.68 79.456,16.707 79.53,16.722C79.603,16.737 79.676,16.745 79.748,16.745C79.928,16.745 80.07,16.712 80.174,16.646C80.278,16.58 80.331,16.493 80.332,16.385Z" style="fill:rgb(100,121,132);fill-rule:nonzero;"/>
        <path d="M6.469,0.072C10.039,0.072 12.937,2.97 12.937,6.541C12.937,10.111 10.039,13.009 6.469,13.009C2.898,13.009 0,10.111 0,6.541C0,2.97 2.898,0.072 6.469,0.072ZM1.39,3.805L11.547,3.805L6.469,12.501L1.39,3.805Z" style="fill:rgb(100,121,132);"/>
    </g>
</svg>
